<svg width="38" height="38" viewBox="0 0 38 38" fill="none" xmlns="http://www.w3.org/2000/svg">
<g clip-path="url(#clip0_93_12)">
<rect x="1" y="1" width="36" height="36" rx="7" stroke="#525157" stroke-width="2"/>
<rect x="22" y="22" width="8" height="8" rx="1" fill="#525157"/>
<rect x="22" y="22" width="8" height="8" rx="1" fill="#525157"/>
<rect x="22" y="22" width="8" height="8" rx="1" fill="#525157"/>
<rect x="22" y="8" width="8" height="8" rx="1" fill="#525157"/>
<rect x="22" y="8" width="8" height="8" rx="1" fill="#525157"/>
<rect x="22" y="8" width="8" height="8" rx="1" fill="#525157"/>
<rect x="8" y="8" width="8" height="8" rx="1" fill="#525157"/>
<rect x="8" y="8" width="8" height="8" rx="1" fill="#525157"/>
<rect x="8" y="8" width="8" height="8" rx="1" fill="#525157"/>
<rect x="8" y="22" width="8" height="8" rx="1" fill="#525157"/>
<rect x="8" y="22" width="8" height="8" rx="1" fill="#525157"/>
<rect x="8" y="22" width="8" height="8" rx="1" fill="#525157"/>
</g>
<defs>
<clipPath id="clip0_93_12">
<rect width="38" height="38" rx="8" fill="white"/>
</clipPath>
</defs>
</svg>
